<svg width="1728" height="826" viewBox="0 0 1728 826" fill="none" xmlns="http://www.w3.org/2000/svg">
<g clip-path="url(#clip0_3_5)">
<path d="M1555.96 45.5373L1551.96 47.0688V114.149C1551.96 151.008 1551.39 181.74 1550.82 182.455C1550.24 183.17 1539.09 184.906 1526.21 186.335C1455.26 194.197 1384.88 206.755 1304.92 225.848C1283.46 230.953 1265.01 234.833 1263.72 234.527C1261.86 233.914 1261.57 227.482 1261.57 180.209C1261.57 126.81 1261.57 126.606 1258.71 126.606C1257 126.606 1253.85 127.32 1251.56 128.137L1247.27 129.669L1246.98 185.008L1246.55 240.245L1215.8 249.025C1133.55 272.713 1045.29 303.037 958.601 337.343C945.012 342.754 932.996 347.145 931.994 347.145C928.704 347.145 927.989 344.286 927.274 329.073C926.845 321.211 925.987 314.064 925.271 313.349C924.413 312.328 923.126 312.226 920.122 313.043L916.116 313.962L915.401 334.076C914.972 345.511 914.114 354.598 913.255 355.109C908.964 357.967 733.875 427.805 731.014 427.805C728.725 427.805 728.582 426.477 723.575 387.475C720.428 362.562 718.569 351.331 717.138 350.31C715.565 349.085 704.979 351.025 642.182 363.991C585.678 375.733 569.228 379.511 569.228 380.736C569.371 381.655 572.089 403.913 575.522 430.357C578.955 456.699 581.53 478.855 581.101 479.57C579.384 482.735 493.127 504.993 445.492 514.591L429.9 517.654L424.035 514.693C409.158 507.138 391.993 502.645 373.683 501.624C363.097 501.114 361.667 500.807 361.094 498.867C360.665 497.642 358.806 487.84 356.803 476.916L353.227 457.21L367.675 446.285C401.291 421.066 416.597 400.952 424.178 372.16C427.468 359.907 427.897 327.848 425.036 314.983C420.602 295.175 412.448 279.043 400.718 266.791C390.419 255.866 381.55 251.782 373.396 254.13C361.237 257.806 339.637 281.085 331.055 299.668C319.754 324.478 318.323 355.313 326.191 400.135L329.481 418.514L325.333 421.781C322.901 423.517 309.455 432.399 295.293 441.588C265.396 460.886 236.644 481.612 226.773 491.108C214.042 503.36 206.461 516.02 202.026 532.459L199.451 541.648L170.556 541.954L141.517 542.158V537.564C141.517 533.99 140.659 532.254 138.084 530.417C133.364 527.047 128.071 526.23 123.637 528.273C120.49 529.702 120.06 530.723 120.06 535.522C120.06 540.32 119.631 541.137 117.343 541.137C113.337 541.137 111.907 539.197 111.049 532.357C109.046 515.51 89.1623 503.36 63.843 503.36C41.3847 503.462 23.0747 512.753 18.068 526.843C16.7806 530.315 15.2071 532.561 13.7766 532.765C12.6323 532.969 2.18983 531.948 -9.39696 530.519C-33.7149 527.456 -32.9997 527.456 -32.9997 529.294C-32.9997 530.212 -26.2765 531.438 -9.25391 533.582C14.6349 536.543 20.6429 537.972 17.7819 540.014C16.4945 540.933 -12.687 537.462 -28.9944 534.501C-32.1414 533.888 -32.9997 534.092 -32.9997 535.318C-32.9997 537.053 -26.2765 538.278 5.47991 542.771C22.5025 545.221 27.08 546.344 27.08 548.386C27.08 550.02 20.4998 549.407 -5.2486 545.221C-34.1441 540.525 -32.9997 540.729 -32.9997 542.465C-32.9997 544.405 8.34085 551.143 76.4312 560.332C80.8656 560.843 82.153 561.558 82.153 563.089C82.153 564.416 81.0087 565.233 79.1491 565.437C75.5729 565.846 25.3634 558.086 -8.53868 551.96C-28.5652 548.386 -32.9997 547.876 -32.7136 549.101C-32.1414 550.939 -3.24595 556.657 46.1052 564.518C63.2708 567.275 77.7186 569.726 78.1477 570.032C80.0073 571.461 77.0033 573.81 73.2841 573.81C67.1331 573.81 -18.8381 558.086 -31.1401 554.717C-32.1414 554.41 -32.9997 554.921 -32.9997 555.738C-32.9997 556.861 -29.2805 558.188 -21.2699 559.924C-2.67376 563.906 24.6482 569.317 44.2456 572.789C71.9967 577.69 72.855 577.894 72.855 579.017C72.855 580.651 65.1305 588.206 54.688 597.089C42.0999 607.605 40.5264 609.341 42.5291 610.77C44.9608 612.506 50.1105 609.647 71.2815 594.536L90.3067 580.855L122.778 585.449C140.516 588.002 166.408 591.269 180.14 592.698C193.873 594.128 207.176 595.557 209.608 595.864C213.327 596.272 215.33 597.701 221.624 604.542C241.078 625.881 270.832 640.584 305.306 645.791C318.18 647.731 349.365 648.14 361.094 646.404C366.387 645.689 368.676 645.689 369.82 646.608C372.395 648.65 380.835 699.905 379.834 707.256C377.545 722.674 368.819 734.313 354.371 741.256C343.214 746.565 333.916 748.403 319.039 748.505C308.453 748.505 305.878 748.199 299.012 745.646C293.433 743.604 290.858 742.073 290.572 740.439C290.143 738.703 290.858 738.193 293.433 738.193C306.021 738.193 321.614 731.046 327.765 722.571C340.782 704.295 319.897 681.527 290.286 681.629C267.256 681.833 250.662 693.37 249.089 710.217C247.801 723.899 252.951 733.803 266.97 744.319C281.417 755.346 298.869 760.655 320.326 760.655C357.089 760.655 386.843 744.319 394.138 720.019C397.142 709.605 396.57 696.025 391.85 669.989C389.418 656.92 387.558 645.179 387.558 643.851C387.558 641.911 389.275 640.992 396.713 638.746C417.884 632.314 439.77 619.041 450.499 605.972L455.648 599.846L486.976 597.599C582.102 590.759 670.219 577.485 794.097 551.245C816.985 546.447 824.709 545.323 823.565 546.957C823.422 547.468 820.847 550.939 818.129 554.921C813.552 561.455 813.123 562.783 813.123 570.951C813.123 579.119 813.409 580.038 817.414 584.224C835.152 602.194 876.921 599.233 906.818 577.996C913.255 573.401 918.977 568.194 920.98 565.335C924.27 560.026 926.702 546.344 926.845 531.744V523.882L934.426 522.453C961.605 516.939 981.775 513.57 982.919 514.387C983.634 514.897 983.634 516.429 982.633 518.062C980.773 521.534 980.773 525.822 982.49 525.822C984.779 525.822 988.355 522.759 991.931 517.756C993.791 515.101 996.223 512.447 997.224 511.834C1001.66 509.077 1064.03 500.603 1107.08 496.825C1154.43 492.639 1175.6 491.72 1227.96 491.72C1280.17 491.618 1299.48 492.435 1346.69 496.723C1491.31 509.792 1634.35 548.182 1772.39 610.975L1798 622.614V608.116V593.617L1772.68 582.795C1712.46 557.065 1662.53 539.299 1602.17 522.351C1487.45 489.984 1368.43 473.852 1244.12 473.75C1230.82 473.75 1220.09 473.342 1220.09 472.831C1220.09 472.321 1224.67 469.258 1230.1 466.093C1235.68 462.826 1243.41 457.21 1247.27 453.432C1253.85 447.204 1260.14 437.913 1260.14 434.441C1260.14 433.625 1261.29 432.501 1262.72 431.991C1264.15 431.48 1281.03 430.664 1300.34 430.255C1434.8 427.601 1572.7 446.285 1702.02 484.675C1726.76 491.924 1766.24 505.096 1783.41 511.63C1790.7 514.387 1797 516.633 1797.28 516.633C1797.71 516.633 1798 510.303 1798 502.543V488.351L1779.12 481.918C1698.58 454.555 1617.05 435.36 1528.5 422.904C1521.49 421.883 1515.48 420.556 1515.2 419.943C1514.91 419.33 1519.63 416.369 1525.93 413.204C1546.95 402.688 1561.4 389.006 1564.83 375.937C1566.98 368.28 1565.12 368.484 1597.73 372.568C1658.24 380.123 1721.04 392.376 1777.12 407.487C1787.27 410.243 1796.14 412.49 1796.86 412.49C1797.57 412.49 1797.86 406.261 1797.71 398.502L1797.28 384.616L1788.13 382.165C1769.53 377.265 1723.62 367.361 1695.86 362.358C1680.13 359.601 1666.97 357.049 1666.54 356.844C1666.25 356.538 1669.83 350.514 1674.55 343.367C1684.13 328.971 1688 320.803 1692.29 306.406C1693.72 301.199 1695.01 296.707 1695.01 296.502C1695.01 294.46 1751.22 302.016 1794.14 309.878L1798.14 310.592L1797.71 296.502L1797.28 282.31L1785.84 280.575C1768.68 277.818 1723.19 271.998 1709.03 270.569L1696.44 269.343L1695.01 265.055C1694.29 262.809 1692.57 258.827 1691.29 256.274C1688.28 250.353 1688.28 248.208 1691.43 238.917C1693.15 233.812 1694.15 226.563 1694.29 217.476L1694.58 203.692L1711.6 203.999C1726.19 204.305 1764.67 206.653 1790.56 208.899L1798 209.614V195.728V181.843L1791.99 181.23C1775.11 179.698 1752.65 178.575 1722.9 178.065C1704.88 177.759 1688.57 177.35 1686.85 177.044C1684.56 176.738 1681.56 173.674 1675.84 165.813C1663.11 148.353 1653.81 139.981 1620.62 116.396C1586.72 92.1976 1578.42 85.1526 1571.7 74.8404C1567.55 68.6122 1567.12 66.7743 1566.55 55.9516C1565.98 44.4141 1565.84 43.9036 1562.83 43.9036C1561.26 44.0057 1558.11 44.7205 1555.96 45.5373ZM1587.58 131.609C1596.73 135.489 1608.89 141.104 1614.76 144.065C1634.07 153.765 1661.68 174.389 1658.39 176.533C1657.67 177.044 1644.22 177.963 1628.49 178.575L1599.88 179.801L1596.59 176.942C1588.58 170.101 1576.99 156.419 1572.42 148.251C1565.69 136.51 1564.12 124.564 1569.27 124.564C1570.13 124.564 1578.42 127.729 1587.58 131.609ZM1671.55 203.182C1675.98 203.182 1676.27 203.386 1677.7 208.287C1680.13 216.251 1679.84 234.833 1677.27 234.833C1676.27 234.833 1674.26 233.608 1672.83 232.179C1671.4 230.647 1662.68 223.806 1653.38 216.965C1643.94 210.125 1636.36 204.203 1636.36 203.896C1636.36 203.08 1652.66 202.365 1660.53 202.773C1663.97 202.978 1668.97 203.182 1671.55 203.182ZM1602.31 219.824C1634.93 235.139 1649.95 244.431 1660.68 255.968C1670.69 266.587 1670.55 266.893 1656.1 266.178C1644.08 265.464 1593.3 263.524 1576.28 263.115L1566.98 262.911L1566.55 235.446C1566.26 207.674 1566.69 204.305 1571.41 205.632C1572.42 205.939 1586.29 212.269 1602.31 219.824ZM1551.1 208.899C1552.39 211.248 1552.1 260.665 1550.82 262.094C1549.96 263.013 1540.95 263.728 1521.78 264.443C1443.1 267.404 1378.44 274.449 1293.9 289.151C1269.59 293.337 1263.86 294.052 1262.86 292.929C1262.15 292.112 1261.57 283.331 1261.57 273.428C1261.57 255.764 1261.72 255.253 1264.86 253.824C1268.87 251.986 1299.91 244.839 1335.96 237.386C1387.74 226.665 1445.82 217.374 1494.74 211.962C1540.52 206.857 1549.81 206.347 1551.1 208.899ZM1247.27 277.614C1247.27 288.845 1246.7 297.217 1245.84 297.626C1245.12 297.932 1232.25 300.893 1217.37 304.262C1139.84 321.619 1063.17 343.367 977.913 372.057C968.614 375.223 959.746 377.775 958.315 377.775C955.168 377.775 938.289 362.97 938.289 360.214C938.289 358.274 941.293 357.049 990.501 338.67C1047.72 317.331 1114.52 294.971 1169.31 278.941C1198.06 270.569 1243.12 258.419 1245.55 258.317C1246.84 258.317 1247.27 262.809 1247.27 277.614ZM1551.1 288.539C1552.67 291.602 1552.1 337.445 1550.39 338.67C1549.24 339.487 1547.1 339.283 1542.52 337.956C1525.21 332.646 1497.17 332.544 1475.43 337.649C1463.56 340.508 1460.41 340.814 1434.66 341.427C1380.88 342.754 1338.68 345.511 1289.04 350.922C1267.73 353.271 1264.01 353.475 1262.86 352.148C1262.15 351.331 1261.57 342.55 1261.57 332.646C1261.57 317.637 1262 314.37 1263.86 313.043C1265.01 312.124 1266.58 311.409 1267.15 311.409C1267.73 311.409 1279.6 309.571 1293.47 307.325C1345.83 298.953 1402.19 292.623 1452.54 289.457C1485.44 287.517 1489.88 287.313 1522.78 287.109C1546.67 286.905 1550.39 287.109 1551.1 288.539ZM1602.74 287.926C1629.2 289.151 1674.41 292.623 1676.7 293.644C1678.7 294.562 1677.41 308.142 1674.26 318.965C1672.98 323.457 1668.97 333.463 1665.4 341.223C1659.82 353.577 1658.67 355.313 1655.95 355.313C1654.24 355.313 1644.51 354.19 1634.21 352.76C1624.06 351.433 1605.32 349.289 1592.73 348.064C1580.14 346.838 1568.98 345.307 1568.12 344.796C1566.69 344.082 1566.26 337.241 1566.26 317.025C1566.26 302.22 1566.69 289.457 1567.12 288.539C1568.12 286.599 1571.56 286.496 1602.74 287.926ZM394.281 297.728C399.002 299.872 402.006 303.547 404.724 310.695C414.022 334.586 405.153 360.112 379.118 384.412C370.392 392.58 348.935 408.406 346.647 408.406C340.925 408.406 338.064 362.154 342.498 342.04C348.077 317.331 361.381 300.484 378.546 296.707C385.699 295.175 388.989 295.379 394.281 297.728ZM1246.98 335.403C1247.13 346.022 1246.84 355.006 1246.27 355.415C1245.55 355.823 1234.68 357.865 1221.95 359.805C1158.29 369.709 1089.35 384.412 1022.97 402.177C1000.51 408.099 994.077 409.324 994.077 407.589C994.077 407.18 989.213 402.994 983.348 398.4C977.483 393.805 972.62 389.313 972.62 388.598C972.62 386.25 1045.29 363.889 1101.79 348.778C1150.71 335.709 1240.55 315.085 1245.12 315.902C1245.98 316.106 1246.7 323.661 1246.98 335.403ZM1419.5 363.277C1419.93 363.787 1418.35 366.136 1415.92 368.688C1406.77 378.49 1403.33 390.129 1406.05 401.258C1407.05 404.934 1407.91 408.814 1407.91 409.835C1408.2 411.775 1406.77 411.775 1359.56 411.571C1332.81 411.469 1300.34 411.877 1287.47 412.49C1268.3 413.408 1263.72 413.408 1262.86 412.285C1261.29 410.55 1261.29 374.61 1262.86 372.874C1266.58 368.586 1416.21 359.499 1419.5 363.277ZM915.401 381.042C915.401 386.658 914.686 392.069 913.971 393.192C912.111 395.541 738.881 457.72 735.448 457.21C732.873 456.802 730.441 448.429 731.157 442.303C731.586 438.934 732.301 438.628 770.924 423.823C792.524 415.451 833.149 399.727 861.043 388.7C898.665 373.895 912.254 368.994 913.541 369.811C914.829 370.526 915.401 374.099 915.401 381.042ZM714.134 373.385C714.563 375.018 716.28 388.292 718.139 403.096C720.571 422.393 721 430.459 719.999 431.685C717.281 434.85 597.551 476.813 591.257 476.813C590.112 476.813 589.111 475.078 588.682 472.423C586.679 461.907 579.098 397.991 579.67 397.481C580.099 397.174 596.12 393.703 615.289 389.823C634.457 385.841 662.923 380.021 678.658 376.754C694.394 373.487 708.698 370.73 710.272 370.73C712.561 370.628 713.562 371.343 714.134 373.385ZM1246.98 387.271C1247.27 396.868 1246.84 400.237 1245.7 400.237C1244.69 400.237 1239.69 399.012 1234.54 397.481C1227.24 395.439 1221.81 394.724 1210.79 394.316C1192.77 393.703 1182.9 395.439 1163.59 402.177C1147.14 407.997 1133.98 415.246 1124.96 423.517L1118.67 429.234L1088.92 434.543C1072.61 437.402 1050.01 441.691 1038.71 444.039C1027.41 446.387 1017.68 448.021 1017.11 447.715C1016.39 447.51 1015.53 444.856 1014.96 441.895C1014.39 438.934 1012.24 433.114 1010.24 428.928C1006.95 421.985 1006.81 421.168 1008.95 420.147C1015.82 416.472 1120.96 393.192 1163.73 385.841C1189.34 381.451 1241.83 373.691 1244.41 373.997C1246.13 374.202 1246.7 376.652 1246.98 387.271ZM953.308 400.85C961.033 403.811 974.05 410.856 975.91 413C976.482 413.817 976.196 414.736 975.195 415.246C971.762 416.778 930.707 428.826 928.704 428.826C927.131 428.826 926.845 426.273 927.131 415.859L927.56 402.892L933.282 400.544C940.72 397.583 944.583 397.583 953.308 400.85ZM914.543 410.039C916.259 413.102 915.401 431.48 913.684 433.114C911.253 435.258 743.173 488.045 738.738 488.045C736.592 488.045 734.59 477.834 735.448 471.913C735.877 468.645 736.449 468.339 765.202 458.639C781.366 453.228 820.275 439.751 851.745 428.622C883.215 417.595 909.965 408.508 911.253 408.508C912.54 408.406 914.114 409.12 914.543 410.039ZM994.363 431.889C999.083 438.525 1003.37 450.165 1001.66 451.39C1000.51 452.207 936.143 468.441 929.992 469.36L926.702 469.871L927.131 456.291L927.56 442.712L956.885 434.237C973.049 429.643 987.211 425.967 988.355 426.069C989.499 426.171 992.217 428.826 994.363 431.889ZM722.86 443.937C723.146 444.345 723.861 448.429 724.433 453.024L725.578 461.396L711.416 466.195C657.058 484.369 595.834 502.339 593.546 500.705C592.83 500.195 591.972 496.723 591.829 493.15C591.4 485.492 587.538 487.432 625.731 475.384C640.751 470.687 667.787 461.498 685.811 455.066C718.425 443.324 721.429 442.405 722.86 443.937ZM915.401 460.375C915.401 467.624 914.829 471.81 913.684 472.934C912.683 473.75 878.066 483.45 836.725 494.477C743.745 519.288 741.027 519.9 739.167 519.492C737.022 518.981 737.594 501.216 739.883 499.582C740.884 498.867 754.759 494.477 770.924 489.78C787.088 484.982 825.282 473.546 856.037 464.255C896.805 451.901 912.254 447.612 913.541 448.429C914.829 449.144 915.401 452.82 915.401 460.375ZM1109.37 454.045C1109.8 461.6 1113.52 467.931 1120.53 473.444C1125.82 477.732 1126.97 479.876 1123.96 479.876C1115.67 479.876 1046 488.861 1020.54 493.252C1014.25 494.273 1008.67 494.783 1007.95 494.273C1007.24 493.762 1007.95 490.393 1009.67 486.717C1011.24 482.94 1013.39 476.201 1014.39 471.606C1015.53 466.297 1016.96 463.03 1018.39 462.519C1025.26 460.069 1098.93 447.204 1104.8 447.51C1108.8 447.715 1108.94 447.919 1109.37 454.045ZM340.639 479.366C345.216 502.645 345.216 503.258 342.212 503.972C340.782 504.381 334.202 506.525 327.478 508.771C318.037 511.936 313.031 514.489 305.163 520.104C299.584 524.086 293.719 529.191 292.003 531.54C290.429 533.786 288.141 536.134 287.139 536.849C284.135 538.585 253.237 540.627 251.377 539.299C247.515 536.543 267.685 513.264 286.138 498.867C296.866 490.495 334.774 466.501 336.633 466.91C337.492 467.114 339.351 472.729 340.639 479.366ZM1002.37 472.423C1001.37 479.264 995.936 494.375 993.648 496.621C992.36 497.744 931.851 510.507 927.703 510.507C927.131 510.507 926.845 504.585 926.845 497.234C926.845 484.573 926.988 483.961 930.135 482.735C934.998 480.795 995.793 466.807 999.656 466.705C1002.95 466.603 1003.09 466.807 1002.37 472.423ZM727.151 474.976C729.297 482.123 729.583 490.903 727.724 491.72C726.722 492.231 721 492.639 715.135 492.741C702.69 492.843 696.253 494.783 685.382 501.726C679.517 505.3 674.367 507.138 654.913 512.243C620.868 521.125 599.411 526.128 597.265 525.516C594.547 524.699 592.83 512.651 595.262 511.017C596.263 510.405 607.135 507.138 619.294 503.87C643.183 497.438 689.816 483.552 709.414 477.018C723.718 472.219 726.293 471.913 727.151 474.976ZM914.543 488.657C916.259 491.72 915.544 511.119 913.684 512.753C912.683 513.57 894.516 518.062 873.202 522.759C852.031 527.354 818.129 534.807 798.103 539.299C665.641 568.603 585.392 581.774 487.691 590.248C473.529 591.473 461.513 592.188 461.084 591.882C459.94 591.065 462.086 582.284 463.945 580.446C464.946 579.323 471.384 578.2 484.115 576.771C494.414 575.648 511.151 573.606 521.593 572.278C535.755 570.338 541.334 569.93 544.194 570.747C552.634 572.993 564.65 571.257 574.663 566.254C577.667 564.825 585.392 562.783 592.83 561.558C611.14 558.495 645.472 551.858 667.93 547.059C678.515 544.711 691.962 542.567 697.541 542.158C705.694 541.648 709.414 540.729 715.422 538.074C719.57 536.236 736.592 531.438 753.043 527.354C782.367 520.104 888.937 492.945 903.242 489.066C912.111 486.615 913.398 486.615 914.543 488.657ZM584.104 496.315C584.82 500.399 584.534 502.951 583.532 503.87C580.099 506.729 461.37 532.969 451.643 532.969C449.068 532.969 440.485 526.128 440.485 524.086C440.485 523.474 441.63 522.657 443.06 522.351C489.407 512.855 534.467 502.237 562.791 494.273C582.674 488.657 582.96 488.657 584.104 496.315ZM70.5662 512.957C77.0033 516.429 82.01 522.555 85.157 530.723C88.4471 539.197 87.7319 539.606 72.5689 538.483L60.696 537.564L58.1212 533.684C55.2602 529.396 48.2509 525.822 42.5291 525.822C40.3833 525.822 36.378 526.639 33.5171 527.558C19.4985 532.357 26.9369 517.756 41.2416 512.549C51.8271 508.669 62.9848 508.771 70.5662 512.957ZM586.679 518.062C588.253 523.167 586.679 524.393 580.528 522.861C567.368 519.594 551.633 523.78 539.045 533.888C531.606 539.81 530.462 540.32 520.449 542.158C505.715 544.915 464.946 551.347 462.658 551.347C460.512 551.347 455.648 542.669 456.65 540.729C457.079 540.014 468.809 537.36 483.686 534.705C510.292 529.804 553.206 520.819 571.373 516.225C576.952 514.795 582.388 513.774 583.532 513.876C584.677 513.978 586.107 515.816 586.679 518.062ZM672.364 524.801C672.794 527.864 673.652 531.642 674.224 533.173C675.368 535.828 675.225 535.93 659.061 539.402C622.727 547.468 595.405 552.675 593.689 551.96C593.116 551.654 593.689 547.876 594.976 543.486L597.265 535.522L631.596 527.251C650.335 522.657 667.072 518.981 668.645 519.083C671.077 519.185 671.649 520.104 672.364 524.801ZM913.255 527.762C913.684 528.273 913.398 528.987 912.54 529.396C911.825 529.702 911.11 529.294 911.11 528.477C911.11 526.639 911.968 526.333 913.255 527.762ZM390.419 537.666C393.709 538.585 395.998 539.912 395.712 540.525C395.14 541.75 382.408 543.996 374.541 544.098C369.677 544.2 369.248 543.996 368.39 540.627C367.818 538.585 367.818 536.543 368.39 535.93C369.677 534.399 382.695 535.522 390.419 537.666ZM351.51 542.465C352.082 546.855 351.939 546.855 338.922 548.182C327.621 549.305 324.904 548.182 330.769 544.813C336.49 541.546 346.361 537.972 348.935 538.381C350.366 538.483 351.224 540.014 351.51 542.465ZM78.2908 542.771C85.8723 543.384 89.0193 545.323 86.1583 547.365C84.5848 548.489 60.1238 546.651 57.9781 545.119C55.2602 543.384 60.2669 541.035 65.5596 541.546C68.4205 541.852 74.1424 542.362 78.2908 542.771ZM283.134 547.161C283.134 548.795 282.133 550.633 281.131 551.347C279.844 552.062 271.976 552.777 262.535 553.083L245.942 553.696V550.633C245.942 545.426 248.374 544.915 274.265 544.405L283.134 544.2V547.161ZM168.267 546.855C196.447 547.57 198.736 547.774 199.595 549.51C200.024 550.531 199.595 552.164 198.593 552.981C196.734 554.615 189.152 554.513 142.948 552.266C112.765 550.837 111.478 550.735 111.478 547.57V544.915L124.781 545.528C131.933 545.936 151.674 546.549 168.267 546.855ZM415.595 549.714C420.316 553.083 421.746 555.738 419.315 556.861C416.74 557.984 374.255 561.66 373.253 560.843C371.108 559.107 370.249 552.573 372.109 551.654C373.54 551.041 385.699 549.305 409.587 546.344C410.16 546.344 412.877 547.774 415.595 549.714ZM67.1331 550.326C72.2828 550.939 78.5769 551.654 81.1517 551.96C84.4418 552.266 85.7292 552.981 85.7292 554.308C85.7292 555.431 84.8709 556.452 83.8696 556.759C81.1517 557.473 44.2456 552.777 42.386 551.45C41.3847 550.735 41.5277 550.224 42.9582 549.918C44.1026 549.714 45.9622 549.203 47.1066 548.999C49.3953 548.386 51.6841 548.591 67.1331 550.326ZM528.459 554.104C530.462 563.804 532.035 562.783 510.865 565.846C486.69 569.317 466.52 571.359 465.376 570.44C464.803 570.032 464.088 567.479 463.659 564.723C462.801 558.495 462.372 558.699 488.406 554.921C498.706 553.492 510.578 551.654 514.87 550.837C527.315 548.693 527.458 548.693 528.459 554.104ZM354.371 558.29C354.657 561.149 354.228 562.783 352.941 563.089C351.939 563.293 342.784 564.008 332.628 564.621C311.028 565.846 309.598 565.437 313.889 559.72C316.75 555.942 316.893 555.942 329.624 554.819C336.776 554.104 345.073 553.696 348.22 553.798C353.942 553.9 353.942 553.9 354.371 558.29ZM142.233 556.452C152.532 557.065 169.555 557.882 180.14 558.29L199.451 559.005L199.881 562.272L200.31 565.642H192.728C184.002 565.642 163.118 564.416 132.219 561.966C109.618 560.23 105.041 559.005 108.617 555.84C110.19 554.615 112.193 554.308 117.2 554.819C120.776 555.125 132.076 555.84 142.233 556.452ZM279.987 558.392C281.131 558.903 281.703 560.639 281.417 562.681L280.988 566.152L262.678 566.458L244.368 566.765L244.797 562.885L245.226 559.005L260.962 558.392C269.688 558.086 276.983 557.78 277.412 557.678C277.841 557.576 278.986 557.882 279.987 558.392ZM127.213 565.642C138.657 566.663 159.541 568.296 173.703 569.215C187.865 570.134 200.31 571.053 201.311 571.257C202.169 571.461 203.028 573.095 203.028 574.831C203.028 577.587 202.599 577.894 198.45 577.894C185.004 577.894 106.042 570.032 103.324 568.5C102.037 567.786 101.894 566.867 103.038 565.54C104.754 563.191 102.18 563.191 127.213 565.642ZM429.042 566.152C432.332 572.482 432.332 573.708 428.899 574.729C427.039 575.137 414.88 576.26 401.863 577.179C383.982 578.404 377.831 578.506 376.687 577.587C374.541 576.056 373.11 570.44 374.398 569.011C375.399 567.99 411.018 564.008 422.319 563.702C426.896 563.6 427.897 564.008 429.042 566.152ZM357.661 574.116C358.09 576.362 357.804 578.302 356.946 578.813C356.088 579.323 345.931 580.038 334.202 580.446C310.599 581.263 308.882 580.957 308.882 575.239C308.882 572.176 309.311 571.768 313.603 571.257C319.611 570.542 334.345 570.032 346.79 570.134L356.803 570.236L357.661 574.116ZM284.564 573.708C285.28 574.831 285.995 576.873 285.995 578.302V580.957H269.688C260.676 580.957 251.664 580.548 249.804 580.038C245.942 579.017 243.939 574.627 246.371 572.891C247.372 572.176 255.097 571.768 265.539 571.768C281.417 571.768 283.134 571.972 284.564 573.708ZM126.784 575.75C140.802 577.383 161.258 579.527 172.273 580.446C207.605 583.407 206.318 583.203 207.891 586.368C208.75 588.104 208.75 589.533 207.891 590.044C205.316 591.882 98.8895 579.527 95.3133 576.975C93.5968 575.75 96.4577 572.789 99.4617 572.789C100.463 572.789 112.908 574.116 126.784 575.75ZM431.903 586.368C431.903 594.026 431.33 594.23 404.867 595.353C387.844 595.966 380.835 595.966 379.404 595.149C378.403 594.434 377.545 591.984 377.545 589.533C377.545 585.551 377.974 585.041 380.835 584.939C382.551 584.837 392.422 584.224 402.578 583.509C412.877 582.897 423.606 582.182 426.61 582.182L431.903 581.978V586.368ZM294.721 589.329C298.869 592.596 299.87 594.74 297.868 595.557C297.152 595.762 287.425 595.557 275.982 595.149C257.385 594.332 254.954 594.026 252.808 592.086C251.377 590.861 250.233 589.023 250.233 588.002C250.233 586.164 251.521 586.062 270.403 586.062H290.429L294.721 589.329ZM360.665 590.146C362.525 596.272 362.525 596.272 339.78 596.272H318.896L315.892 592.086C313.46 588.614 313.317 587.696 314.89 586.981C315.892 586.47 326.334 586.164 338.207 586.368L359.521 586.572L360.665 590.146ZM298.154 601.275C307.166 601.377 309.455 601.785 321.041 605.972C328.194 608.626 336.776 610.975 340.21 611.281C347.934 611.996 347.219 610.668 338.207 607.503C327.335 603.725 329.481 602.398 346.647 602.398C354.943 602.398 362.096 602.807 362.525 603.419C362.954 603.93 364.385 610.158 365.672 617.305C368.247 632.11 368.676 631.497 356.231 632.62C336.49 634.356 313.174 631.191 293.862 624.044C283.42 620.164 260.246 605.053 260.246 602.092C260.246 599.846 261.677 599.743 275.695 600.56C282.562 600.867 292.718 601.275 298.154 601.275ZM424.75 602.807C424.75 605.359 413.879 614.752 405.868 618.939C395.712 624.452 386.128 627.617 384.697 625.779C382.838 623.737 379.977 604.338 381.264 603.419C382.551 602.5 392.279 601.99 413.736 601.581C422.319 601.377 424.75 601.683 424.75 602.807Z" fill="black"/>
<path d="M111.62 502.951C108.187 506.116 108.044 506.933 110.19 511.426C113.051 517.246 123.35 518.675 128.5 513.978C133.507 509.384 131.933 504.585 124.352 501.828C118.344 499.582 114.91 499.888 111.62 502.951Z" fill="black"/>
</g>
<defs>
<clipPath id="clip0_3_5">
<rect width="1831" height="826" fill="white" transform="translate(-33)"/>
</clipPath>
</defs>
</svg>
