<svg width="500" height="240" viewBox="0 0 500 240" fill="none" xmlns="http://www.w3.org/2000/svg">
<path fill-rule="evenodd" clip-rule="evenodd" d="M432.779 1.05543L433.873 0.54474C434.458 0.27237 435.318 0.0340462 435.747 0C436.568 0 436.607 0.170231 436.763 4.01746C436.919 7.62636 437.036 8.23919 438.169 10.316C440.005 13.7547 442.27 16.1039 451.527 24.1728C460.589 32.0375 463.128 34.8293 466.604 40.6512C468.167 43.2728 468.987 44.2942 469.612 44.3963C470.081 44.4984 474.533 44.6346 479.455 44.7368C487.579 44.907 493.711 45.2815 498.32 45.7922L499.961 45.9965V50.6268V55.257L497.93 55.0187C490.86 54.2697 480.353 53.4866 476.369 53.3845L471.721 53.2824L471.643 57.8786C471.604 60.9087 471.33 63.326 470.862 65.0283C470.002 68.1265 470.002 68.8415 470.823 70.8162C471.174 71.6673 471.643 72.9951 471.838 73.7442L472.229 75.1741L475.666 75.5827C479.533 76.0593 491.954 77.9999 496.641 78.9192L499.766 79.498L499.883 84.2304L500 88.9288L498.906 88.6905C487.189 86.0689 471.838 83.5495 471.838 84.2304C471.838 84.2726 471.703 84.8636 471.508 85.7201C471.388 86.2461 471.245 86.8722 471.096 87.5329C469.924 92.3334 468.87 95.0571 466.253 99.8576C464.964 102.241 463.987 104.25 464.065 104.352C464.183 104.42 467.776 105.271 472.073 106.19C479.65 107.858 492.188 111.161 497.266 112.795L499.766 113.612L499.883 118.243C499.922 120.83 499.844 122.907 499.648 122.907C499.453 122.907 497.031 122.158 494.258 121.239C478.947 116.2 461.8 112.114 445.278 109.595C439.234 108.671 437.526 108.342 436.869 109.025C436.558 109.348 436.482 109.898 436.294 110.718C435.357 115.076 431.412 119.638 425.67 123.145C423.952 124.201 422.663 125.188 422.741 125.392C422.819 125.597 424.459 126.039 426.373 126.38C450.551 130.533 472.815 136.934 494.805 146.058L499.961 148.203V152.936C499.961 155.523 499.883 157.634 499.766 157.634C499.688 157.634 497.969 156.885 495.977 155.966C491.29 153.787 480.509 149.395 473.752 146.978C438.443 134.176 400.789 127.946 364.074 128.831C358.801 128.967 354.192 129.24 353.801 129.41C353.41 129.58 353.098 129.955 353.098 130.227C353.098 131.384 351.379 134.483 349.583 136.559C348.528 137.819 346.419 139.692 344.895 140.781C343.411 141.837 342.161 142.858 342.161 143.028C342.161 143.198 345.091 143.335 348.723 143.335C382.666 143.369 415.163 148.748 446.489 159.541C462.972 165.192 476.603 171.116 493.047 179.696L499.961 183.305V188.14V192.974L492.969 189.093C455.277 168.154 416.218 155.353 376.729 150.995C363.839 149.565 358.566 149.293 344.31 149.327C330.014 149.327 324.233 149.633 311.304 151.029C299.548 152.289 282.518 155.115 281.307 156.034C281.033 156.238 280.369 157.123 279.862 158.009C278.885 159.677 277.909 160.698 277.284 160.698C276.815 160.698 276.815 159.268 277.323 158.111C277.596 157.566 277.596 157.055 277.401 156.885C277.088 156.613 271.581 157.736 264.16 159.575L262.09 160.051V162.673C262.051 167.542 261.387 172.104 260.488 173.874C259.941 174.827 258.379 176.564 256.621 178.096C248.458 185.177 237.053 186.165 232.209 180.173C231.116 178.777 231.038 178.47 231.038 175.747C231.038 173.023 231.155 172.58 232.405 170.401C232.688 169.894 232.966 169.412 233.203 169C233.587 168.333 233.865 167.851 233.889 167.746C234.201 167.201 232.092 167.576 225.843 169.176C192.017 177.926 167.957 182.352 141.982 184.633L133.428 185.382L132.022 187.425C129.093 191.782 123.117 196.208 117.336 198.353C115.305 199.102 114.836 199.409 114.836 200.056C114.836 200.498 115.344 204.414 116.008 208.772C117.297 217.453 117.453 221.981 116.633 225.454C114.641 233.557 106.516 239.005 96.4782 239.005C90.6193 239.005 85.8541 237.234 81.9091 233.557C78.0813 230.05 76.6751 226.748 77.0267 222.186C77.4563 216.568 81.9872 212.721 88.2757 212.653C96.361 212.619 102.064 220.211 98.5093 226.305C96.8297 229.131 92.5723 231.514 89.1351 231.514C88.432 231.514 88.2367 231.685 88.3539 232.263C88.432 232.808 89.1351 233.319 90.6584 234C92.5332 234.851 93.2363 234.953 96.1267 234.953C100.189 234.919 102.728 234.306 105.774 232.536C109.719 230.221 112.102 226.339 112.727 221.198C113 218.747 110.696 201.656 109.993 200.975C109.68 200.669 109.055 200.669 107.61 200.907C104.407 201.486 95.8923 201.349 92.377 200.703C82.9637 198.966 74.8393 194.064 69.5273 186.948C67.8087 184.667 67.2618 184.19 66.2463 184.054C65.5823 183.952 61.9498 183.475 58.2001 182.999C54.4504 182.522 47.3806 181.432 42.5373 180.581L33.6708 179.049L28.4759 183.611C22.6951 188.65 21.289 189.604 20.625 189.025C20.0782 188.548 20.5078 187.969 23.945 184.463C26.7964 181.501 28.9056 178.981 28.9056 178.436C28.9056 178.062 28.6712 177.994 21.0937 176.36C15.7426 175.202 8.28226 173.397 3.20455 172.07C1.01723 171.491 0.00168323 171.048 0.00168323 170.674C0.00168323 170.401 0.236039 170.231 0.509454 170.333C3.86856 171.457 27.3432 176.7 29.0228 176.7C30.0383 176.7 30.8585 175.917 30.3508 175.44C30.2336 175.338 26.2886 174.521 21.6015 173.602C8.12602 170.98 0.236039 169.074 0.0798019 168.461C0.00168322 168.052 1.21252 168.222 6.68083 169.414C15.9379 171.457 29.6477 174.044 30.6242 173.908C31.132 173.84 31.4444 173.568 31.4444 173.125C31.4444 172.614 31.0929 172.376 29.8821 172.206C11.2898 169.142 0.00168323 166.895 0.00168323 166.248C0.00168323 166.226 0.00123011 166.204 0.000794068 166.184C-0.0102206 165.666 -0.0103407 165.661 7.57919 167.167C14.6099 168.563 16.4066 168.767 16.4066 168.222C16.4066 167.542 15.1567 167.167 10.5086 166.35C1.83747 164.852 0.00168323 164.443 0.00168323 163.865C0.00168323 163.456 0.236039 163.388 1.09534 163.592C5.54811 164.58 13.5162 165.737 13.8677 165.431C14.6489 164.75 13.0084 164.273 6.48553 163.286C1.83747 162.571 0.00168323 162.162 0.00168323 161.856C0.00168323 161.733 -0.00610006 161.636 0.0342704 161.565C0.196123 161.284 1.13197 161.447 6.44647 162.264C9.61028 162.741 12.4616 163.081 12.7741 163.013C13.1647 162.945 13.5943 162.196 13.9459 161.039C15.3129 156.34 20.3125 153.242 26.4448 153.208C33.3583 153.208 38.7876 157.26 39.3344 162.877C39.5688 165.158 39.9594 165.805 41.053 165.805C41.678 165.805 41.7952 165.533 41.7952 163.933C41.7952 162.332 41.9123 161.992 42.7716 161.515C43.9825 160.834 45.4277 161.107 46.7166 162.23C47.4197 162.843 47.6541 163.422 47.6541 164.614V166.146L55.5831 166.078L63.4731 165.975L64.1761 162.911C65.387 157.43 67.4571 153.208 70.9334 149.123C73.6285 145.956 81.4794 139.045 89.6428 132.61C93.5097 129.546 97.1813 126.584 97.8453 126.005L98.978 124.916L98.0796 118.787C95.9314 103.841 96.322 93.5591 99.4077 85.2858C101.751 79.0894 107.649 71.3269 110.969 70.1012C113.196 69.3181 115.617 70.68 118.43 74.3229C121.632 78.4085 123.859 83.7878 125.07 90.3928C125.851 94.6826 125.734 105.373 124.835 109.459C122.765 119.06 118.586 125.767 109.407 134.176L105.462 137.819L106.438 144.39C106.985 148.033 107.493 151.301 107.61 151.71C107.766 152.357 108.157 152.459 111.047 152.629C116.047 152.97 120.734 154.468 124.796 156.987L126.398 157.975L130.655 156.953C143.662 153.753 167.215 146.331 167.683 145.275C167.801 145.037 167.097 137.649 166.16 128.865C165.52 122.842 164.971 117.471 164.674 114.573C164.537 113.228 164.454 112.416 164.441 112.319C164.441 111.91 168.933 110.65 184.362 106.735C201.509 102.411 204.399 101.764 204.829 102.173C205.219 102.513 205.727 106.258 206.586 114.566L206.634 115.021C207.955 127.582 208 128.014 208.617 128.014C209.399 128.014 257.207 104.726 258.379 103.773C258.613 103.603 258.848 100.573 258.965 96.7594L259.16 90.0523L260.254 89.7459C261.074 89.4735 261.426 89.5076 261.66 89.848C261.855 90.0864 262.09 92.4696 262.207 95.0911C262.402 100.164 262.597 101.117 263.496 101.117C263.769 101.117 267.05 99.6533 270.761 97.8489C294.431 86.4094 318.53 76.2976 340.99 68.3989L349.387 65.4709L349.504 47.0519L349.583 28.5988L350.754 28.0881C351.379 27.8158 352.239 27.5775 352.707 27.5775C353.488 27.5775 353.488 27.6455 353.488 45.4517C353.488 61.2151 353.567 63.3601 354.074 63.5643C354.426 63.6665 359.465 62.3727 365.323 60.6704C387.158 54.3038 406.375 50.1161 425.748 47.4945C429.264 47.0179 432.31 46.4391 432.466 46.2007C432.623 45.9624 432.779 35.7145 432.779 23.4238V1.05543ZM449.926 33.3994C448.325 32.412 445.004 30.5395 442.505 29.2457C440.005 27.952 437.739 26.8965 437.505 26.8965C436.099 26.8965 436.529 30.8799 438.364 34.7953C439.614 37.519 442.778 42.0812 444.965 44.3623L445.864 45.3155L453.676 44.907C457.972 44.7027 461.644 44.3963 461.839 44.2261C462.737 43.5111 455.199 36.6338 449.926 33.3994ZM466.995 63.6665C467.698 63.6665 467.776 57.4701 467.112 54.8144C466.721 53.1802 466.643 53.1121 465.433 53.1121C464.729 53.1121 463.362 53.044 462.425 52.9759C460.277 52.8398 455.824 53.0781 455.824 53.3505C455.824 53.4526 457.894 55.4273 460.472 57.7084C463.011 59.9895 465.393 62.2706 465.784 62.7813C466.175 63.2579 466.721 63.6665 466.995 63.6665ZM462.464 70.714C459.535 66.8668 455.433 63.7686 446.528 58.6617C442.153 56.1423 438.364 54.0314 438.091 53.9292C436.802 53.4866 436.685 54.6102 436.763 63.8707L436.88 73.0292L439.419 73.0973C444.067 73.2335 457.933 73.8803 461.214 74.1187C465.159 74.357 465.198 74.2549 462.464 70.714ZM432.466 72.7568C432.818 72.2802 432.896 55.8018 432.545 55.0187C432.193 54.1676 429.654 54.3378 417.155 56.0401C403.797 57.8446 387.939 60.9428 373.799 64.5176C363.956 67.003 355.481 69.3862 354.387 69.9991C353.528 70.4757 353.488 70.6459 353.488 76.5359C353.488 79.8384 353.645 82.7664 353.84 83.0388C354.113 83.4133 355.676 83.175 362.316 81.7791C385.4 76.8764 403.055 74.5272 424.537 73.5399C429.771 73.3016 432.232 73.0632 432.466 72.7568ZM349.192 84.6049C349.426 84.4687 349.583 81.6769 349.583 77.9318C349.583 72.9951 349.465 71.4971 349.114 71.4971C348.45 71.5311 336.146 75.5827 328.295 78.3744C313.336 83.7197 295.095 91.1758 279.471 98.2915C266.035 104.42 265.214 104.828 265.214 105.475C265.214 106.394 269.823 111.331 270.683 111.331C271.073 111.331 273.495 110.48 276.034 109.425C299.313 99.8576 320.249 92.6058 341.419 86.8179C345.481 85.6944 348.997 84.707 349.192 84.6049ZM432.349 98.2915C432.818 97.8829 432.974 82.5962 432.545 81.5748C432.349 81.0981 431.334 81.03 424.811 81.0981C415.827 81.1662 414.616 81.2343 405.633 81.8812C391.884 82.9366 376.494 85.0475 362.199 87.8393C358.41 88.5883 355.168 89.2011 355.012 89.2011C354.856 89.2011 354.426 89.4395 354.113 89.7459C353.606 90.1885 353.488 91.278 353.488 96.2828C353.488 99.5853 353.645 102.513 353.84 102.786C354.153 103.228 355.168 103.16 360.988 102.377C374.541 100.573 386.064 99.6533 400.75 99.2107C407.781 99.0065 408.64 98.9043 411.882 97.951C417.819 96.2487 425.475 96.2828 430.201 98.0532C431.451 98.4958 432.037 98.5639 432.349 98.2915ZM466.839 83.2771C466.214 82.9366 453.871 81.7791 446.645 81.3705C438.13 80.8939 437.193 80.9279 436.919 81.5748C436.802 81.8812 436.685 86.137 436.685 91.0737C436.685 97.8148 436.802 100.096 437.193 100.334C437.427 100.504 440.474 101.015 443.911 101.424C447.348 101.832 452.465 102.547 455.238 102.99C458.05 103.467 460.706 103.841 461.175 103.841C461.917 103.841 462.23 103.262 463.753 99.1427C464.729 96.5551 465.823 93.2186 466.175 91.7206C467.034 88.1117 467.385 83.5835 466.839 83.2771ZM119.523 88.9628C118.781 86.5796 117.961 85.3539 116.672 84.639C115.227 83.8559 114.328 83.7878 112.375 84.2985C107.688 85.5582 104.056 91.1758 102.532 99.415C101.322 106.122 102.103 121.545 103.665 121.545C104.29 121.545 110.149 116.268 112.532 113.544C119.64 105.441 122.062 96.9296 119.523 88.9628ZM349.309 103.875C349.465 103.739 349.544 100.743 349.504 97.202C349.426 93.2867 349.231 90.7673 348.997 90.6992C347.747 90.4268 323.218 97.3042 309.859 101.662C294.431 106.701 274.589 114.157 274.589 114.94C274.589 115.178 275.917 116.676 277.518 118.209C279.12 119.741 280.448 121.137 280.448 121.273C280.448 121.851 282.205 121.443 288.338 119.468C306.461 113.544 325.288 108.642 342.669 105.339C346.145 104.692 349.114 104.011 349.309 103.875ZM395.634 108.301C396.298 107.45 396.727 106.667 396.61 106.497C395.712 105.237 354.856 108.267 353.84 109.697C353.41 110.276 353.41 122.26 353.84 122.839C354.074 123.213 355.324 123.213 360.558 122.907C364.074 122.703 372.94 122.566 380.244 122.601C393.134 122.669 393.524 122.669 393.446 122.022C393.446 121.681 393.212 120.388 392.938 119.162C392.196 115.451 393.134 111.57 395.634 108.301ZM258.574 116.472C258.77 116.098 258.965 114.293 258.965 112.421C258.965 110.106 258.809 108.914 258.457 108.676C258.106 108.403 254.395 110.037 244.122 114.974C237.138 118.346 227.23 123.035 221.086 125.943C220.53 126.206 220.005 126.454 219.515 126.686C208.969 131.623 208.774 131.725 208.657 132.848C208.461 134.891 209.125 137.683 209.828 137.819C210.766 137.989 258.067 117.255 258.574 116.472ZM205.102 119.775C204.594 114.838 204.126 110.412 204.009 109.867C203.852 109.186 203.579 108.948 202.954 108.982C202.524 108.982 198.618 109.901 194.322 110.991C192.305 111.502 189.523 112.201 186.597 112.936C183.289 113.767 179.796 114.644 177.019 115.349C171.785 116.642 167.41 117.8 167.293 117.902C167.137 118.072 169.207 139.385 169.753 142.892C169.871 143.777 170.144 144.356 170.457 144.356C172.175 144.356 204.868 130.363 205.61 129.308C205.883 128.899 205.766 126.209 205.102 119.775ZM349.153 118.821C349.465 118.821 349.583 117.698 349.504 114.498C349.426 110.957 349.27 110.14 348.801 110.071C348.098 109.969 333.764 112.557 326.772 114.021C315.093 116.472 286.385 124.235 284.51 125.46C283.924 125.801 283.963 126.073 284.861 128.388C285.408 129.784 285.994 131.725 286.15 132.712C286.306 133.7 286.541 134.585 286.736 134.653C286.892 134.755 289.548 134.21 292.634 133.427C295.72 132.644 301.891 131.214 306.344 130.261L314.468 128.491L316.187 126.584C318.648 123.826 322.241 121.409 326.733 119.468C332.006 117.221 334.701 116.642 339.622 116.847C342.63 116.983 344.114 117.221 346.106 117.902C347.512 118.413 348.88 118.821 349.153 118.821ZM275.487 123.077C274.979 122.362 271.425 120.013 269.316 119.026C266.933 117.936 265.878 117.936 263.847 118.924L262.285 119.707L262.168 124.03C262.09 127.503 262.168 128.354 262.597 128.354C263.144 128.354 274.354 124.337 275.292 123.826C275.565 123.656 275.643 123.35 275.487 123.077ZM258.496 129.784C258.965 129.24 259.199 123.111 258.731 122.09C258.613 121.783 258.184 121.545 257.832 121.579C257.481 121.579 250.177 124.609 241.584 128.286C232.991 131.997 222.366 136.491 217.953 138.296C210.102 141.53 209.946 141.632 209.828 142.722C209.594 144.697 210.141 148.101 210.727 148.101C211.938 148.101 257.832 130.499 258.496 129.784ZM282.518 135.879C282.986 135.47 281.815 131.589 280.526 129.376C279.94 128.354 279.198 127.469 278.885 127.435C278.573 127.401 274.706 128.627 270.292 130.159L262.285 132.985L262.168 137.513L262.051 142.041L262.949 141.871C264.629 141.564 282.205 136.151 282.518 135.879ZM206.821 136.423C206.665 134.891 206.469 133.529 206.391 133.393C206.001 132.882 205.18 133.189 196.275 137.104C191.353 139.249 183.971 142.313 179.87 143.879C172.54 146.703 170.883 147.223 170.586 148.169C170.46 148.569 170.578 149.045 170.613 149.803C170.652 150.995 170.886 152.153 171.081 152.323C171.706 152.868 188.424 146.875 203.266 140.815L207.133 139.215L206.821 136.423ZM258.496 143.062C258.809 142.688 258.965 141.292 258.965 138.875C258.965 136.355 258.809 135.13 258.457 134.891C258.106 134.619 253.887 136.049 242.755 140.168C234.358 143.267 223.929 147.08 219.515 148.68C215.101 150.246 211.313 151.71 211.039 151.948C210.414 152.493 210.258 158.417 210.844 158.587C211.352 158.724 212.094 158.519 237.482 150.246C248.77 146.569 258.223 143.335 258.496 143.062ZM314.976 143.233C313.062 141.394 312.047 139.283 311.929 136.764C311.812 134.721 311.773 134.653 310.68 134.585C309.078 134.483 288.963 138.772 287.088 139.59C286.697 139.76 286.306 140.849 285.994 142.62C285.721 144.152 285.135 146.399 284.705 147.659C284.236 148.884 284.041 150.008 284.236 150.178C284.432 150.348 285.955 150.178 287.674 149.837C294.626 148.374 313.648 145.377 315.913 145.377C316.734 145.377 316.421 144.662 314.976 143.233ZM102.454 153.412C103.275 153.174 103.275 152.97 102.025 145.207C101.673 142.994 101.165 141.122 100.931 141.054C100.423 140.917 90.0725 148.918 87.143 151.71C82.1044 156.511 76.597 164.273 77.6516 165.192C78.1594 165.635 86.5962 164.954 87.4164 164.375C87.6899 164.137 88.3148 163.354 88.7445 162.605C89.2132 161.822 90.8146 160.119 92.3379 158.792C94.4862 156.919 95.8533 156.068 98.4312 155.013C100.267 154.264 102.064 153.549 102.454 153.412ZM280.33 150.961C280.955 150.212 282.44 145.173 282.713 142.892C282.908 141.02 282.869 140.951 281.971 140.985C280.916 141.02 264.316 145.684 262.988 146.331C262.129 146.739 262.09 146.944 262.09 151.165C262.09 153.617 262.168 155.591 262.324 155.591C263.457 155.591 279.979 151.336 280.33 150.961ZM207.719 149.327C208.227 149.054 208.149 146.126 207.563 143.743C207.329 142.722 206.625 142.824 202.72 144.424C197.368 146.603 184.635 151.233 178.112 153.378C174.792 154.468 171.824 155.557 171.55 155.762C170.886 156.306 171.355 160.324 172.097 160.596C172.683 160.8 178.542 159.132 187.838 156.17C193.15 154.468 194.556 153.855 196.158 152.663C199.126 150.348 200.884 149.701 204.282 149.667C205.883 149.633 207.446 149.497 207.719 149.327ZM258.496 156.34C259.004 155.796 259.199 149.327 258.731 148.305C258.418 147.625 258.067 147.625 255.645 148.442C251.739 149.735 222.64 158.792 214.633 161.209C210.141 162.571 205.493 164.171 204.36 164.784C202.72 165.669 201.704 165.975 199.478 166.146C197.954 166.282 194.283 166.997 191.392 167.78C185.26 169.38 175.886 171.593 170.886 172.614C168.855 173.023 166.746 173.704 165.926 174.181C163.192 175.849 159.911 176.428 157.606 175.679C156.825 175.406 155.302 175.542 151.435 176.189C148.583 176.632 144.013 177.313 141.201 177.687C137.725 178.164 135.967 178.538 135.694 178.913C135.186 179.526 134.6 182.454 134.913 182.726C135.03 182.828 138.311 182.59 142.178 182.181C168.855 179.356 190.767 174.964 226.936 165.192C232.405 163.694 241.662 161.209 247.442 159.677C253.262 158.111 258.223 156.613 258.496 156.34ZM168.347 153.378C168.621 153.072 168.699 152.221 168.504 150.859C168.191 148.305 168.113 148.305 162.684 150.178C154.95 152.834 142.646 156.374 129.991 159.541C129.601 159.643 129.288 159.915 129.288 160.119C129.288 160.8 131.632 163.081 132.335 163.081C134.991 163.081 167.41 154.332 168.347 153.378ZM32.2647 162.332C31.4054 159.609 30.0383 157.566 28.2806 156.408C26.2105 155.013 23.1639 154.978 20.2735 156.272C16.3675 158.009 14.3365 162.877 18.1643 161.277C18.9455 160.971 20.0391 160.698 20.625 160.698C22.1874 160.698 24.1013 161.89 24.8825 163.32L25.5855 164.614L28.8275 164.92C32.9677 165.294 33.163 165.158 32.2647 162.332ZM167.527 159.711C169.207 160.222 169.636 159.813 169.207 158.111C169.05 157.362 168.66 156.749 168.347 156.715C168.035 156.681 166.551 157.021 165.027 157.498C160.067 159.03 148.349 162.026 141.084 163.66C137.022 164.545 133.819 165.431 133.702 165.669C133.428 166.316 134.756 169.21 135.342 169.21C135.967 169.21 147.099 167.065 151.122 166.146C153.856 165.533 154.169 165.363 156.2 163.388C159.637 160.017 163.934 158.621 167.527 159.711ZM193.111 163.15C192.955 162.639 192.72 161.379 192.603 160.358C192.408 158.792 192.252 158.485 191.588 158.451C191.158 158.417 186.588 159.643 181.471 161.175L172.097 163.933L171.472 166.588C171.121 168.052 170.964 169.312 171.121 169.414C171.589 169.652 179.05 167.916 188.971 165.226C193.384 164.069 193.423 164.035 193.111 163.15ZM258.184 161.89C258.418 161.754 258.496 161.515 258.379 161.345C258.028 160.868 257.793 160.971 257.793 161.583C257.793 161.856 257.988 161.992 258.184 161.89ZM117.062 165.601C117.141 165.397 116.516 164.954 115.617 164.648C113.508 163.933 109.954 163.558 109.602 164.069C109.446 164.273 109.446 164.954 109.602 165.635C109.836 166.758 109.954 166.827 111.282 166.793C113.43 166.758 116.906 166.009 117.062 165.601ZM101.591 168.15C105.111 167.712 105.149 167.707 104.993 166.248C104.915 165.431 104.681 164.92 104.29 164.886C103.587 164.75 100.892 165.941 99.3295 167.031C97.7281 168.154 98.4702 168.529 101.556 168.154L101.591 168.15ZM32.5381 167.882C33.3193 167.201 32.46 166.554 30.3898 166.35C29.92 166.293 29.3763 166.231 28.845 166.17C28.0954 166.084 27.3707 166.001 26.9136 165.941C25.4684 165.771 24.1013 166.554 24.8434 167.133C25.4293 167.644 32.1084 168.257 32.5381 167.882ZM85.776 169.21C86.0494 168.971 86.3228 168.359 86.3228 167.814V166.827L83.9011 166.895C76.8314 167.065 76.1674 167.235 76.1674 168.971V169.993L80.6982 169.789C83.2762 169.686 85.4244 169.448 85.776 169.21ZM63.5121 168.597C63.2778 168.018 62.6528 167.95 54.9581 167.712C50.4273 167.61 45.0371 167.405 43.0841 167.269L39.4516 167.065V167.95C39.4516 169.006 39.8031 169.04 48.0446 169.516C60.6608 170.265 62.7309 170.299 63.2387 169.755C63.5121 169.482 63.6293 168.937 63.5121 168.597ZM123.507 171.048C124.171 170.674 123.781 169.789 122.492 168.665C121.75 168.018 121.007 167.542 120.851 167.542C114.328 168.529 111.008 169.108 110.618 169.312C110.11 169.618 110.344 171.797 110.93 172.376C111.204 172.648 122.804 171.423 123.507 171.048ZM29.869 169.229C29.0978 169.12 28.1669 168.989 27.3432 168.869C23.1248 168.291 22.4998 168.222 21.8749 168.427C21.7187 168.461 21.5137 168.52 21.3086 168.58C21.1035 168.64 20.8984 168.699 20.7422 168.733C20.3516 168.835 20.3125 169.006 20.5859 169.244C21.0937 169.686 31.171 171.253 31.9131 171.014C32.1866 170.912 32.4209 170.572 32.4209 170.197C32.4209 169.755 32.0694 169.516 31.171 169.414C30.8798 169.372 30.4143 169.306 29.869 169.229ZM153.487 172.676C153.747 172.213 153.539 171.485 153.31 170.129C153.036 168.325 152.997 168.325 149.599 169.04C148.427 169.312 145.185 169.925 142.373 170.401C137.448 171.274 135.992 171.51 135.639 172.262C135.483 172.596 135.544 173.032 135.616 173.67C135.733 174.589 135.928 175.44 136.084 175.576C136.397 175.883 141.904 175.202 148.505 174.044C151.862 173.451 153.125 173.317 153.487 172.676ZM105.384 173.125C105.735 173.023 105.852 172.478 105.774 171.525C105.717 170.809 105.688 170.443 105.49 170.252C105.283 170.053 104.893 170.044 104.095 170.027C103.235 169.993 100.97 170.129 99.0171 170.367L98.98 170.371C95.5405 170.742 95.4989 170.746 94.7205 172.002C93.5488 173.908 93.9394 174.044 99.8373 173.636C102.611 173.432 105.11 173.193 105.384 173.125ZM58.2001 171.525C55.3097 171.389 50.6616 171.116 47.8493 170.912C45.0761 170.708 41.9905 170.47 41.014 170.367C39.6469 170.197 39.1001 170.299 38.6704 170.708C37.6939 171.763 38.9438 172.172 45.1152 172.751C53.552 173.568 59.2547 173.976 61.6373 173.976H63.7074L63.5903 172.853L63.4731 171.763L58.2001 171.525ZM85.8541 172.989C85.9322 172.308 85.776 171.729 85.4635 171.559C85.1901 171.389 84.8776 171.287 84.7604 171.321C84.6432 171.355 82.6512 171.457 80.2686 171.559L75.9721 171.763L75.8549 173.057L75.7377 174.351L80.7373 174.249L85.7369 174.147L85.8541 172.989ZM56.4424 175.168C52.5755 174.861 46.8729 174.317 43.7481 173.976C38.4943 173.348 37.694 173.203 37.3921 173.525C37.3013 173.622 37.2555 173.761 37.1471 173.942C36.8346 174.385 36.8737 174.691 37.2252 174.93C37.9673 175.44 59.5281 178.062 63.1997 178.062C64.3324 178.062 64.4496 177.96 64.4496 177.04C64.4496 176.462 64.2152 175.917 63.9808 175.849C63.7074 175.781 60.3093 175.474 56.4424 175.168ZM126.124 177.006C127.062 176.666 127.062 176.257 126.163 174.147C125.851 173.432 125.577 173.295 124.327 173.329C121.242 173.432 111.516 174.759 111.243 175.1C110.891 175.576 111.282 177.449 111.868 177.96C112.18 178.266 113.86 178.232 118.742 177.824C122.296 177.517 125.616 177.143 126.124 177.006ZM106.477 178.368C106.712 178.198 106.79 177.551 106.673 176.802L106.438 175.508L103.704 175.474C100.306 175.44 96.2829 175.611 94.6424 175.849C93.4706 176.019 93.3535 176.155 93.3535 177.177C93.3535 179.083 93.8222 179.185 100.267 178.913C103.47 178.777 106.243 178.538 106.477 178.368ZM87.104 178.198C87.104 177.721 86.9087 177.04 86.7134 176.666C86.3228 176.087 85.8541 176.019 81.5185 176.019C78.6672 176.019 76.5579 176.155 76.2845 176.394C75.6205 176.972 76.1674 178.436 77.222 178.777C77.7297 178.947 80.1905 179.083 82.6512 179.083H87.104V178.198ZM56.0518 178.913C53.0442 178.607 47.4588 177.892 43.6309 177.347C39.8422 176.802 36.444 176.36 36.1706 176.36C35.3504 176.36 34.5692 177.347 35.0379 177.755C36.0144 178.607 65.0745 182.726 65.7776 182.113C66.0119 181.943 66.0119 181.466 65.7776 180.888C65.7022 180.703 65.6509 180.552 65.5655 180.424C65.1638 179.824 64.008 179.727 56.0518 178.913ZM119.562 183.884C126.788 183.509 126.944 183.441 126.944 180.888V179.424L125.499 179.492C124.875 179.492 123.029 179.63 120.942 179.786C120.288 179.835 119.609 179.886 118.937 179.934C116.164 180.173 113.469 180.377 113 180.411C112.219 180.445 112.102 180.615 112.102 181.943C112.102 182.76 112.336 183.577 112.61 183.816C113 184.088 114.914 184.088 119.562 183.884ZM90.3459 183.952C90.8927 183.679 90.6193 182.964 89.4866 181.875L88.3148 180.786H82.8465C77.6907 180.786 77.3391 180.82 77.3391 181.432C77.3391 181.773 77.6516 182.386 78.0422 182.794C78.6281 183.441 79.2921 183.543 84.3698 183.816C87.4946 183.952 90.1506 184.02 90.3459 183.952ZM107.612 183.601C107.779 183.298 107.665 182.84 107.493 182.147L107.18 180.956L101.361 180.888C98.1187 180.82 95.2674 180.922 94.994 181.092C94.5643 181.33 94.6034 181.637 95.2674 182.794L96.0876 184.19H101.79C105.894 184.19 107.286 184.19 107.612 183.601ZM96.6735 187.425C93.5097 186.029 92.8847 185.892 90.424 185.858C88.9398 185.858 86.1665 185.722 84.2917 185.62C80.4639 185.348 80.0733 185.382 80.0733 186.131C80.0733 187.118 86.4009 192.157 89.2522 193.451C94.5252 195.834 100.892 196.889 106.282 196.311C107.785 196.145 108.6 196.093 108.981 195.659C109.462 195.112 109.252 193.957 108.86 191.204C108.508 188.82 108.118 186.744 108.001 186.573C107.884 186.369 105.931 186.233 103.665 186.233C98.978 186.233 98.3921 186.676 101.361 187.935C103.821 188.991 104.017 189.433 101.907 189.195C100.97 189.093 98.6265 188.31 96.6735 187.425ZM119.836 191.748C122.023 190.353 124.992 187.22 124.992 186.369C124.992 185.995 124.327 185.892 121.984 185.961C116.125 186.097 113.469 186.267 113.117 186.573C112.766 186.88 113.547 193.349 114.055 194.03C114.445 194.642 117.062 193.587 119.836 191.748Z" fill="black"/>
</svg>
